# xmcd
#
# Track frame offsets:
#	150
#	16174
#	30180
#	43332
#	62346
#	77498
#	85028
#	91653
#	108856
#	140250
#	150686
#	165850
#	178473
#	190746
#	204661
#	220676
#
# Disc length: 3221 seconds
#
# Revision: 3
# Processed by: cddbd v1.5.2PL0 Copyright (c) Steve Scherf et al.
# Submitted via: EZCDAudioConverter 3.1.0.1
#
DISCID=b80c9310
DTITLE=Chiko Queiroga and Antônio Rogério - Canta-SE
DYEAR=1900
DGENRE=Vocal
TTITLE0=Ruas de Ará
TTITLE1=Séculou
TTITLE2=Pecado de Pássaro
TTITLE3=Bolero Parabello - Poema Crepúsculo
TTITLE4=Amor Roxo
TTITLE5=Chiro da Terra
TTITLE6=Brejeira
TTITLE7=Sofrendo
TTITLE8=Meu Papagaio - Camará
TTITLE9=Maramar
TTITLE10=Serpente
TTITLE11=O Comodista
TTITLE12=Aracaju Menina
TTITLE13=Encontrar Você
TTITLE14=Fiim de Primavera
TTITLE15=Laranjeiras
EXTD=
EXTT0=
EXTT1=
EXTT2=
EXTT3=
EXTT4=
EXTT5=
EXTT6=
EXTT7=
EXTT8=
EXTT9=
EXTT10=
EXTT11=
EXTT12=
EXTT13=
EXTT14=
EXTT15=
PLAYORDER=
